<svg xmlns="http://www.w3.org/2000/svg" xml:space="preserve" width="2000" height="121" data-id="lg_FyCuS19OMofnOuZGBE" data-version="1" viewBox="0 0 2000 121"><g data-padding="20"><g transform="translate(10 2.547)scale(.9579)"><rect width="359.22" height="67.595" x="453.906" y="-373.297" fill="none" rx="0" ry="0" transform="translate(364.6 385.65)"/><path fill="#0ff" d="M821.976 64.45V28.56q0-1.98.96-3.62.95-1.65 2.6-2.6 1.64-.96 3.62-.96h28.71q1.97 0 3.62.96 1.64.95 2.6 2.6.96 1.64.96 3.62v35.89h-4.85V48.72h-33.38v15.73Zm4.84-20.58h33.38V28.56q0-.96-.69-1.65-.68-.69-1.64-.69h-28.71q-.96 0-1.65.69t-.69 1.65Zm48.93 20.57h-4.9V36.98q0-1.97.99-3.62.98-1.64 2.63-2.63 1.64-.99 3.62-.99h19.5v4.91h-19.5q-.96 0-1.65.69t-.69 1.64Zm32.13 0q-1.98 0-3.62-.99-1.65-.99-2.63-2.63-.99-1.65-.99-3.62V36.98q0-1.97.99-3.62.98-1.64 2.63-2.63 1.64-.99 3.62-.99h27.99v4.91h-27.99q-.96 0-1.65.69t-.69 1.64V57.2q0 .96.69 1.65.69.68 1.65.68h28.11v4.91Zm68.98 0h-28.12q-1.97 0-3.62-.99-1.64-.99-2.63-2.63-.98-1.65-.98-3.62V44.64h30.38v-7.66q0-.95-.68-1.64-.69-.69-1.65-.69h-28.05v-4.91h28.05q2.03 0 3.68.99 1.64.99 2.63 2.63.99 1.65.99 3.62Zm-28.12-4.91h23.15v-9.99h-25.48v7.66q0 .96.69 1.65.69.68 1.64.68m39.06 4.91q-2.03 0-3.67-.99-1.65-.99-2.64-2.63-.98-1.65-.98-3.62V36.98q0-1.97.98-3.62.99-1.64 2.64-2.63 1.64-.99 3.67-.99h23.15V18.38h4.91v46.06Zm0-4.91h20.82q.96 0 1.65-.68.68-.69.68-1.65V36.98q0-.95-.68-1.64-.69-.69-1.65-.69h-20.82q-.95 0-1.64.69t-.69 1.64V57.2q0 .96.69 1.65.69.68 1.64.68m40.73 4.91q-1.97 0-3.62-.99-1.64-.99-2.63-2.63-.99-1.65-.99-3.62V36.98q0-1.97.99-3.62.99-1.64 2.63-2.63 1.65-.99 3.62-.99h20.82q2.03 0 3.68.99 1.64.99 2.63 2.63.99 1.65.99 3.62v12.56h-30.45v7.66q0 .96.69 1.65.68.68 1.64.68h28.12v4.91Zm-2.33-27.46v7.66h25.48v-7.66q0-.95-.69-1.64-.68-.69-1.64-.69h-20.82q-.96 0-1.64.69-.69.69-.69 1.64m40.79 27.46h-4.9V18.38h4.9v11.36h23.21q1.98 0 3.62.99 1.65.99 2.64 2.63.98 1.65.98 3.62v27.46h-4.9V36.98q0-.95-.69-1.64t-1.65-.69h-20.81q-.96 0-1.68.69t-.72 1.64Zm41.46 0q-1.98 0-3.62-.99-1.65-.99-2.63-2.63-.99-1.65-.99-3.62V29.74h4.91V57.2q0 .96.68 1.65.69.68 1.65.68h20.82q.95 0 1.67-.68.72-.69.72-1.65V29.74h4.9V57.2q0 1.97-.98 3.62-.99 1.64-2.64 2.63-1.64.99-3.67.99Zm61.73 0h-28.11V18.38h4.9v11.36h23.21q1.98 0 3.62.99 1.65.99 2.63 2.63.99 1.65.99 3.62V57.2q0 1.97-.99 3.62-.98 1.64-2.63 2.63-1.64.99-3.62.99m-20.82-4.91h20.82q.96 0 1.65-.68.68-.69.68-1.65V36.98q0-.95-.68-1.64-.69-.69-1.65-.69h-20.82q-.95 0-1.67.69t-.72 1.64V57.2q0 .96.72 1.65.72.68 1.67.68"/><rect width="270.28" height="22.6" x="498.376" y="-350.8" fill="none" rx="0" ry="0" transform="translate(400.5 437.18)"/><path fill="#b0b0b0" d="M907.656 89.52h2.02l-4.54 8.68v5.26h-1.82V98.2l-4.56-8.68h2.02l3.44 7.06Zm8.72 14.12q-1.54 0-2.79-.7t-1.96-1.99-.71-2.99q0-1.68.73-2.97t1.99-1.98 2.82-.69 2.82.69 1.99 1.97.73 2.98-.75 2.99-2.03 1.99-2.84.7m0-1.6q.98 0 1.84-.46t1.39-1.38.53-2.24-.52-2.24-1.36-1.37-1.82-.45q-1 0-1.83.45t-1.33 1.37-.5 2.24q0 1.34.49 2.26t1.31 1.37 1.8.45m15.92-9.54h1.82v10.96h-1.82v-1.62q-.52.84-1.45 1.31t-2.05.47q-1.28 0-2.3-.53t-1.61-1.59-.59-2.58V92.5h1.8v6.18q0 1.62.82 2.49t2.24.87q1.46 0 2.3-.9t.84-2.62Zm6.72 1.78q.48-.94 1.37-1.46t2.17-.52v1.88h-.48q-3.06 0-3.06 3.32v5.96h-1.82V92.5h1.82Zm10.98-4.76h7.88V91h-6.06v4.7h4.92v1.48h-4.92v6.28h-1.82Zm11.9 4.76q.48-.94 1.37-1.46t2.17-.52v1.88h-.48q-3.06 0-3.06 3.32v5.96h-1.82V92.5h1.82Zm15.64 3.28q0 .52-.06 1.1h-8.76q.1 1.62 1.11 2.53t2.45.91q1.18 0 1.97-.55t1.11-1.47h1.96q-.44 1.58-1.76 2.57t-3.28.99q-1.56 0-2.79-.7t-1.93-1.99-.7-2.99.68-2.98 1.91-1.97 2.83-.69q1.56 0 2.76.68t1.85 1.87.65 2.69m-1.88-.38q0-1.04-.46-1.79t-1.25-1.14-1.75-.39q-1.38 0-2.35.88t-1.11 2.44Zm14.28.38q0 .52-.06 1.1h-8.76q.1 1.62 1.11 2.53t2.45.91q1.18 0 1.97-.55t1.11-1.47h1.96q-.44 1.58-1.76 2.57t-3.28.99q-1.56 0-2.79-.7t-1.93-1.99-.7-2.99.68-2.98 1.91-1.97 2.83-.69q1.56 0 2.76.68t1.85 1.87.65 2.69m-1.88-.38q0-1.04-.46-1.79t-1.25-1.14-1.75-.39q-1.38 0-2.35.88t-1.11 2.44Zm22.36-3.62h-2.18q-.58-1.22-1.68-1.89t-2.56-.67-2.63.67-1.84 1.92-.67 2.89.67 2.88 1.84 1.91 2.63.67q2.04 0 3.36-1.22t1.54-3.3h-5.56v-1.48h7.5v1.4q-.16 1.72-1.08 3.15t-2.42 2.26-3.34.83q-1.94 0-3.54-.91t-2.53-2.53-.93-3.66.93-3.67 2.53-2.54 3.54-.91q2.22 0 3.93 1.1t2.49 3.1m2.14 4.38q0-1.68.68-2.95t1.87-1.97 2.65-.7q1.44 0 2.5.62t1.58 1.56v-2h1.84v10.96h-1.84v-2.04q-.54.96-1.61 1.59t-2.49.63q-1.46 0-2.64-.72t-1.86-2.02-.68-2.96m9.28.02q0-1.24-.5-2.16t-1.35-1.41-1.87-.49-1.86.48-1.34 1.4-.5 2.16q0 1.26.5 2.19t1.34 1.42 1.86.49 1.87-.49 1.35-1.42.5-2.17m18.1-5.66q1.28 0 2.28.53t1.58 1.59.58 2.58v6.46h-1.8v-6.2q0-1.64-.81-2.51t-2.19-.87q-1.42 0-2.26.91t-.84 2.63v6.04h-1.8v-6.2q0-1.64-.81-2.51t-2.19-.87q-1.42 0-2.26.91t-.84 2.63v6.04h-1.82V92.5h1.82v1.58q.54-.86 1.45-1.32t2.01-.46q1.38 0 2.44.62t1.58 1.82q.46-1.16 1.52-1.8t2.36-.64m8.36-1.58q-.52 0-.88-.36t-.36-.88.36-.88.88-.36q.5 0 .85.36t.35.88-.35.88-.85.36m-.94 1.78h1.82v10.96h-1.82Zm10.26-.2q2 0 3.24 1.21t1.24 3.49v6.46h-1.8v-6.2q0-1.64-.82-2.51t-2.24-.87q-1.44 0-2.29.9t-.85 2.62v6.06h-1.82V92.5h1.82v1.56q.54-.84 1.47-1.3t2.05-.46m11.98.02q1.42 0 2.49.62t1.59 1.56v-2h1.84v11.2q0 1.5-.64 2.67t-1.83 1.83-2.77.66q-2.16 0-3.6-1.02t-1.7-2.78h1.8q.3 1 1.24 1.61t2.26.61q1.5 0 2.45-.94t.95-2.64v-2.3q-.54.96-1.6 1.6t-2.48.64q-1.46 0-2.65-.72t-1.87-2.02-.68-2.96q0-1.68.68-2.95t1.87-1.97 2.65-.7m4.08 5.64q0-1.24-.5-2.16t-1.35-1.41-1.87-.49-1.86.48-1.34 1.4-.5 2.16q0 1.26.5 2.19t1.34 1.42 1.86.49 1.87-.49 1.35-1.42.5-2.17m10.22-8.44h1.82v8.82q0 1.86.91 2.76t2.53.9q1.6 0 2.51-.9t.91-2.76v-8.82h1.82v8.8q0 1.74-.7 2.93t-1.89 1.77-2.67.58-2.67-.58-1.88-1.77-.69-2.93Zm18.88 2.78q2 0 3.24 1.21t1.24 3.49v6.46h-1.8v-6.2q0-1.64-.82-2.51t-2.24-.87q-1.44 0-2.29.9t-.85 2.62v6.06h-1.82V92.5h1.82v1.56q.54-.84 1.47-1.3t2.05-.46m8.4-1.58q-.52 0-.88-.36t-.36-.88.36-.88.88-.36q.5 0 .85.36t.35.88-.35.88-.85.36m-.94 1.78h1.82v10.96h-1.82Zm5.58 0 3.42 9.28 3.4-9.28h1.94l-4.3 10.96h-2.12l-4.3-10.96Zm20.56 5.06q0 .52-.06 1.1h-8.76q.1 1.62 1.11 2.53t2.45.91q1.18 0 1.97-.55t1.11-1.47h1.96q-.44 1.58-1.76 2.57t-3.28.99q-1.56 0-2.79-.7t-1.93-1.99-.7-2.99.68-2.98 1.91-1.97 2.83-.69q1.56 0 2.76.68t1.85 1.87.65 2.69m-1.88-.38q0-1.04-.46-1.79t-1.25-1.14-1.75-.39q-1.38 0-2.35.88t-1.11 2.44Zm6.1-2.9q.48-.94 1.37-1.46t2.17-.52v1.88h-.48q-3.06 0-3.06 3.32v5.96h-1.82V92.5h1.82Zm9.52 9.36q-1.26 0-2.26-.43t-1.58-1.2-.64-1.77h1.88q.08.82.77 1.34t1.81.52q1.04 0 1.64-.46t.6-1.16q0-.72-.64-1.07t-1.98-.69q-1.22-.32-1.99-.65t-1.32-.98-.55-1.71q0-.84.5-1.54t1.42-1.11 2.1-.41q1.82 0 2.94.92t1.2 2.52h-1.82q-.06-.86-.69-1.38t-1.69-.52q-.98 0-1.56.42t-.58 1.1q0 .54.35.89t.88.56 1.47.47q1.18.32 1.92.63t1.27.93.55 1.62q0 .9-.5 1.62t-1.41 1.13-2.09.41m16.56-6.08q0 .52-.06 1.1h-8.76q.1 1.62 1.11 2.53t2.45.91q1.18 0 1.97-.55t1.11-1.47h1.96q-.44 1.58-1.76 2.57t-3.28.99q-1.56 0-2.79-.7t-1.93-1.99-.7-2.99.68-2.98 1.91-1.97 2.83-.69q1.56 0 2.76.68t1.85 1.87.65 2.69m-1.88-.38q0-1.04-.46-1.79t-1.25-1.14-1.75-.39q-1.38 0-2.35.88t-1.11 2.44Z"/><rect width="65.76" height="66.695" x="600.636" y="-372.847" fill="none" rx="0" ry="0" transform="translate(583.13 387.6)"/><path fill="#f0f" d="M1190.016 66.49q-1.54 0-2.6-1.06t-1.06-2.6q0-1.53 1.06-2.59 1.06-1.07 2.6-1.07 1.47 0 2.51 1.07 1.03 1.06 1.03 2.59 0 1.54-1.03 2.6-1.04 1.06-2.51 1.06m13.46-37.95q-1.54 0-2.6-1.06t-1.06-2.6q0-1.53 1.06-2.59 1.06-1.07 2.6-1.07 1.47 0 2.5 1.07 1.04 1.06 1.04 2.59 0 1.54-1.04 2.6-1.03 1.06-2.5 1.06m-2.78 5.25h5.37v32.35h-5.37Zm28.63 32.88q-4.55 0-8.24-2.07-3.69-2.06-5.78-5.87-2.1-3.81-2.1-8.82 0-4.96 2.16-8.77 2.15-3.8 5.87-5.84t8.32-2.04q4.61 0 8.32 2.04 3.72 2.04 5.88 5.81 2.15 3.78 2.15 8.8 0 5.01-2.21 8.82t-5.99 5.87q-3.78 2.07-8.38 2.07m0-4.72q2.89 0 5.43-1.36 2.53-1.36 4.1-4.07 1.56-2.72 1.56-6.61 0-3.9-1.53-6.61-1.54-2.72-4.02-4.05-2.47-1.32-5.37-1.32-2.95 0-5.4 1.32-2.45 1.33-3.92 4.05-1.48 2.71-1.48 6.61 0 3.95 1.45 6.67 1.44 2.71 3.86 4.04t5.32 1.33"/><g transform="translate(400 400)"><linearGradient id="a" x1="0" x2="1" y1="0" y2="0" gradientUnits="objectBoundingBox"><stop offset="0%" stop-color="#ff6cab"/><stop offset="100%" stop-color="#7366ff"/></linearGradient><rect width="474.558" height="121.008" x="396.237" y="-400.004" fill="none" stroke="url(#a)" stroke-width="2.5" paint-order="stroke" rx="11" ry="11"/></g></g><path fill="transparent" stroke="transparent" d="M762.5 0h475v121h-475z"/></g></svg>